# xmcd
#
# Track frame offsets: 
#        150
#        26721
#        58472
#        82241
#        99609
#        119265
#        135113
#        155005
#        172005
#        189175
#        210407
#        241654
#        269156
#        294577
#        326339
#
# Disc length: 4739 seconds
#
# Revision: 0
# Processed by: cddbd v1.5.2PL0 Copyright (c) Steve Scherf et al.
# Submitted via: ExactAudioCopyFreeDBPlugin 1.0
#
DISCID=d912810f
DTITLE=HAYWOODE - Roses  - Remixes and Rarities
DYEAR=2018
DGENRE=R&B
TTITLE0=Roses (Michael Barbiero 12'' Mix)
TTITLE1=I Can't Let You Go (Detroit Extended Mix)
TTITLE2=A Time Like This (Nick Martinelli 12'' Mix)
TTITLE3=I'm Your Puppet
TTITLE4=Divided Love
TTITLE5=Play With Boys
TTITLE6=My Kind Of Hero
TTITLE7=Take Me Up To Heaven
TTITLE8=Slow Burn
TTITLE9=You'd Better Not Fool Around (Original Mix)
TTITLE10=Tease Me (Extended Version)
TTITLE11=A Time Like This (Remix)
TTITLE12=I Can't Let You Go (Thigh and Mighty Re-Mix)
TTITLE13=Roses (Extended US Remix)
TTITLE14=I'm Your Puppet (Extended Version)
EXTD=
EXTT0=
EXTT1=
EXTT2=
EXTT3=
EXTT4=
EXTT5=
EXTT6=
EXTT7=
EXTT8=
EXTT9=
EXTT10=
EXTT11=
EXTT12=
EXTT13=
EXTT14=
PLAYORDER=
